<?xml version="1.0" encoding="utf-8"?>

<!-- License Agreement at http://iconmonstr.com/license/ -->

<!DOCTYPE svg PUBLIC "-//W3C//DTD SVG 1.1//EN" "http://www.w3.org/Graphics/SVG/1.1/DTD/svg11.dtd">
<svg version="1.1" xmlns="http://www.w3.org/2000/svg" xmlns:xlink="http://www.w3.org/1999/xlink" x="0px" y="0px"
	 width="512px" height="512px" viewBox="0 0 512 512" style="enable-background:new 0 0 512 512;" xml:space="preserve">
<path id="layer-6-icon" d="M393.334,84.333h-309v309H50V50h343.334V84.333z M462,118.667V462H118.667V118.667H462z M376.166,287.282
	c0,0-30.695-44.593-85.715-44.593c-54.149,0-85.951,44.593-85.951,44.593s34.585,50.695,85.951,50.695
	C345.756,337.978,376.166,287.282,376.166,287.282z M291.172,264.559c-1.56,0-3.135,0.158-4.66,0.436
	c4.492,12.783-7.964,25.004-20.638,20.36c-0.318,1.626-0.452,3.269-0.452,4.979c0,14.232,11.517,25.783,25.75,25.783
	c14.232,0,25.75-11.551,25.75-25.783C316.922,276.101,305.404,264.559,291.172,264.559z"/>
</svg>
